<?xml version="1.0" encoding="utf-8"?>
<!-- Generator: Adobe Illustrator 23.0.0, SVG Export Plug-In . SVG Version: 6.00 Build 0)  -->
<svg version="1.1" id="Camada_1" xmlns="http://www.w3.org/2000/svg" xmlns:xlink="http://www.w3.org/1999/xlink" x="0px" y="0px"
	 viewBox="0 0 183 60" style="enable-background:new 0 0 183 60;" xml:space="preserve">
<g>
	<path d="M2.8,38.4c0.6-1.8,1.6-3.9,2.8-6.3c1.3-2.4,2.7-4.9,4.4-7.5c1.7-2.6,3.5-5.1,5.5-7.6c2-2.5,4-4.7,6-6.7s4-3.6,6-4.8
		c2-1.2,3.8-1.8,5.6-1.8c2,0,3.4,0.5,4.4,1.5c1,1,1.3,2.3,1,4.1c-0.1,0.8-0.4,1.7-0.9,2.7c-0.5,1-1,2.1-1.7,3.3
		c-0.6,1.1-1.3,2.2-2,3.4c-0.7,1.1-1.4,2.1-2.1,3c-0.7,0.9-1.3,1.7-1.8,2.3c-0.6,0.6-1,0.9-1.2,1c-0.4,0.1-0.8,0-1-0.3
		c-0.3-0.3-0.3-0.7-0.2-1.1c0.1-0.2,0.4-0.8,1-1.7c0.6-0.9,1.3-2,2.1-3.3c0.8-1.3,1.5-2.6,2.2-4.1c0.7-1.5,1.3-2.9,1.7-4.2
		c0.2-0.7,0.2-1.2,0.2-1.5c0-0.3-0.3-0.6-0.8-0.6c-0.4,0-0.9,0-1.4,0.2c-0.5,0.2-1,0.4-1.3,0.6c-1.6,0.8-3.1,1.9-4.6,3.3
		c-1.5,1.4-3,2.9-4.5,4.6c-1.5,1.7-2.9,3.5-4.2,5.4c-1.4,1.9-2.6,3.9-3.8,5.8c-1.2,2-2.3,3.9-3.3,5.8c-1,1.9-1.8,3.7-2.6,5.3
		c-0.3,0.6-0.6,1.4-0.9,2.3c-0.3,0.9-0.5,1.9-0.7,2.9c-0.2,1-0.3,1.9-0.4,2.9c0,0.9,0,1.7,0.2,2.4c0.2,0.7,0.5,1.1,1,1.4
		c0.5,0.2,1,0.4,1.5,0.4c0.8,0,1.8-0.2,2.8-0.5c0.9-0.2,1.9-0.7,3-1.4c1.1-0.7,2.3-1.4,3.5-2.3c1.2-0.9,2.5-1.8,3.7-2.9
		c1.3-1,2.5-2,3.7-3.1c1.2-1,2.3-2,3.3-2.9c1-0.9,1.9-1.7,2.6-2.3c0.3-0.3,0.7-0.6,1-0.7c0.3-0.2,0.6-0.1,0.8,0.1
		c0.2,0.2,0.2,0.5,0.1,0.8c-0.1,0.3-0.3,0.6-0.5,0.9c-0.5,0.8-1.4,1.8-2.5,2.9s-2.4,2.4-3.8,3.7c-1.4,1.3-3,2.5-4.6,3.8
		c-1.7,1.2-3.3,2.4-5,3.4c-1.7,1-3.3,1.8-4.9,2.5c-1.6,0.6-3.1,1-4.4,1c-2,0-3.4-0.5-4.4-1.6c-1-1.1-1.6-2.4-1.9-4
		c-0.3-1.6-0.3-3.3,0-5.1C1.9,41.7,2.3,40,2.8,38.4z"/>
	<path d="M32.6,39.5c0.2-0.4,0.2-0.8,0-1.2c-0.4-0.9-0.6-1.8-0.7-2.8c-0.1-0.9,0-1.9,0.3-2.8c1.1-3.1,3.1-5.3,6.1-6.8
		c0.8-0.4,1.6-0.6,2.3-0.6c1.4,0,2.5,0.6,3.3,1.8c0.5,0.7,0.8,1.4,1,2.3c0.2,0.9,0.3,1.8,0.2,2.7c0,0.9-0.2,1.9-0.3,2.9
		c-0.2,1-0.4,1.9-0.6,2.7c0,0.2-0.1,0.3-0.1,0.4c0,0.1,0,0.2,0,0.4c1.1-0.5,1.9-0.9,2.6-1.4c0.7-0.4,1.2-0.8,1.6-1.1
		c0.4-0.3,0.7-0.6,1-0.8c0.2-0.2,0.5-0.4,0.7-0.5c0.2-0.1,0.3-0.1,0.5-0.2c0.2,0,0.3,0,0.6,0.1c0.5,0.3,0.5,0.8,0.1,1.4
		c-0.4,0.7-1,1.4-1.9,2.1s-1.9,1.5-3,2.2s-2.3,1.3-3.4,1.7c-0.3,0.1-0.5,0.2-0.6,0.3s-0.3,0.3-0.4,0.6c-0.2,0.3-0.4,0.6-0.7,1
		s-0.8,1-1.4,1.6c-1.5,1.6-3,2.3-4.4,2.3c-1.1,0-2-0.4-2.8-1.3c-0.9-1-1.2-2.1-1.1-3.4C31.6,42,32,40.7,32.6,39.5z M34.8,44.7
		c0.2,0.4,0.6,0.6,0.9,0.6c0.5,0,0.9-0.3,1.5-0.8c0.5-0.5,1-1.1,1.5-1.7c-1.5-0.1-2.8-0.6-3.9-1.5c-0.2,0.5-0.3,1.1-0.3,1.7
		C34.4,43.7,34.6,44.2,34.8,44.7z M35.7,35.4c0,0.2,0.1,0.3,0.3,0.3c0.5,0.2,0.8,0.3,0.9,0.6c0.1,0.2,0.1,0.4,0.1,0.6
		c-0.1,0.2-0.1,0.4-0.2,0.6c-0.1,0.2-0.1,0.3,0,0.4c0.4,0.5,0.8,1,1.3,1.3c0.5,0.3,1.1,0.5,2,0.4c0.3-0.1,0.5-0.1,0.6-0.2
		c0.1,0,0.2-0.2,0.3-0.6c0.6-1.4,1-2.8,1.1-4.2c0.2-1.4,0.2-2.5,0-3.5c-0.2-1-0.5-1.8-0.9-2.3c-0.4-0.5-0.9-0.7-1.5-0.5
		c-0.7,0.3-1.5,0.9-2.3,1.7c-0.8,0.8-1.4,1.8-1.7,3c-0.1,0.4-0.2,0.8-0.2,1.2C35.6,34.7,35.6,35,35.7,35.4z"/>
	<path d="M47,45.6c0.2-1.4,0.5-3,1-4.9c0.5-1.8,1-3.7,1.6-5.6c0.6-1.9,1.2-3.7,1.8-5.5c0.6-1.8,1.2-3.3,1.7-4.6
		c0.2-0.6,0.5-1.1,0.8-1.4c0.3-0.4,0.7-0.5,1.3-0.3c0.7,0.2,1,0.6,1,1.2c0,0.6-0.1,1.2-0.2,1.9c-0.3,1.2-0.7,2.6-1.2,4.3
		c-0.5,1.7-1,3.3-1.4,4.8c-0.5,1.6-0.8,2.9-1.1,4.1c-0.3,1.1-0.4,1.8-0.4,1.9c0.1,0,0.4-0.4,0.7-1c0.4-0.6,0.8-1.4,1.4-2.3
		s1.2-1.9,1.9-3.1c0.7-1.1,1.4-2.2,2.1-3.3c0.7-1.1,1.5-2.1,2.2-3c0.8-0.9,1.5-1.6,2.1-2.2c0.5-0.3,0.9-0.5,1.2-0.5
		c0.5,0,0.9,0.2,1.3,0.6c0.3,0.4,0.6,0.8,0.6,1.4c0,0.5,0,1.1-0.2,1.8c-0.1,0.7-0.3,1.4-0.6,2.2c-0.2,0.8-0.5,1.6-0.7,2.3
		c-0.3,0.8-0.5,1.5-0.8,2.1c-0.1,0.3-0.2,0.6-0.4,1c-0.1,0.3-0.2,0.6-0.3,1c0.2-0.1,0.6-0.7,1.2-1.8c0.6-1.1,1.4-2.3,2.2-3.7
		c0.9-1.4,1.8-2.8,2.9-4.1c1-1.4,2-2.3,3-2.9c0.3-0.2,0.6-0.2,0.9-0.2c0.5,0,0.9,0.2,1.3,0.7c0.3,0.5,0.5,1.1,0.4,1.9
		c0,0.5-0.1,1.1-0.3,2c-0.2,0.8-0.4,1.7-0.6,2.7c-0.2,1-0.5,2-0.7,3.1c-0.2,1.1-0.4,2.1-0.6,3.1c-0.1,1-0.2,1.9-0.3,2.8
		c0,0.9,0,1.5,0.2,2c0.1,0.2,0.2,0.3,0.2,0.3c0.1,0,0.2,0,0.4-0.2c0.7-0.5,1.4-1.1,2.2-2s1.4-1.8,2.1-2.7c0.7-0.9,1.3-1.8,1.9-2.6
		c0.6-0.8,1-1.3,1.4-1.5c0.2-0.1,0.4-0.2,0.6-0.2c0.3,0,0.5,0.1,0.7,0.4c0.2,0.2,0.2,0.5,0.1,0.9c-0.2,0.5-0.5,1-0.9,1.8
		c-0.4,0.7-0.9,1.5-1.5,2.4c-0.6,0.8-1.1,1.7-1.7,2.4c-0.6,0.8-1.1,1.4-1.6,2c-0.8,0.9-1.5,1.6-2.2,2c-0.7,0.4-1.3,0.6-1.9,0.6
		c-0.6,0-1.1-0.2-1.6-0.6c-0.5-0.4-0.9-0.9-1.3-1.4c-0.4-0.6-0.7-1.1-0.9-1.8c-0.2-0.6-0.3-1.2-0.3-1.7c0-1.6,0.1-3.1,0.2-4.3
		c0.1-1.2,0.3-2.3,0.5-3.1c0.2-0.8,0.3-1.5,0.5-1.9c0.1-0.5,0.1-0.8,0.1-0.9c-0.2,0.1-0.4,0.5-0.7,1c-0.3,0.5-0.7,1.2-1.1,2
		c-0.4,0.8-0.9,1.6-1.3,2.5c-0.5,0.9-0.9,1.8-1.4,2.6c-0.5,0.9-0.9,1.6-1.2,2.3c-0.4,0.7-0.7,1.2-0.9,1.5c-0.7,1.1-1.5,1.6-2.3,1.6
		c-0.9,0-1.6-0.5-1.9-1.6c-0.2-0.8-0.3-1.7-0.1-2.8c0.2-1.1,0.4-2.2,0.8-3.4c0.3-1.2,0.7-2.3,1.1-3.3c0.4-1,0.7-1.8,0.9-2.4
		c-0.2,0.1-0.3,0.3-0.4,0.4c-0.1,0.1-0.2,0.3-0.3,0.5c-1.1,1.7-2.1,3.4-3.1,5.1c-0.9,1.7-1.8,3.3-2.7,4.8c-0.8,1.5-1.6,2.7-2.3,3.8
		c-0.7,1.1-1.4,1.8-2,2.1c-0.4,0.2-0.8,0.3-1.2,0.3c-0.6,0-1.1-0.3-1.6-0.8C47,47.8,46.9,46.9,47,45.6z"/>
	<path d="M101.4,5.5c0.7,1.1,1,2.5,1.1,4.4c0.1,1.8,0.1,3.9-0.1,6.2c-0.2,2.3-0.5,4.8-0.9,7.4c-0.4,2.6-0.9,5.3-1.3,8
		c-0.4,2.7-0.8,5.3-1.2,7.8c-0.4,2.5-0.6,4.8-0.7,6.9c0,0.2-0.1,0.3-0.1,0.5c0,0.2,0,0.3,0.1,0.6c1-1.1,2.1-2.6,3.3-4.3
		c1.1-1.7,2.3-3.6,3.5-5.7c1.2-2.1,2.3-4.2,3.5-6.5s2.3-4.5,3.3-6.6c1.1-2.2,2-4.2,3-6.1c0.9-1.9,1.7-3.6,2.4-5
		c0.3-0.6,0.7-1.4,1.1-2.4c0.5-1,1-2,1.6-3s1.2-1.8,1.8-2.6c0.6-0.7,1.2-1.1,1.7-1.1c0.3,0,0.5,0.1,0.7,0.2c0.5,0.3,0.6,0.7,0.5,1.3
		c-0.1,0.5-0.3,1-0.5,1.6c-0.6,1.3-1.4,3.2-2.6,5.7c-1.1,2.6-2.4,5.4-3.9,8.5c-1.5,3.1-3,6.4-4.6,9.8c-1.6,3.4-3.3,6.6-4.9,9.6
		c-1.6,3-3.2,5.6-4.7,7.8c-1.5,2.2-2.8,3.7-4,4.5C98.9,53.8,98,54,97.2,54c-1,0-1.9-0.5-2.6-1.4c-0.8-0.9-1.2-2.4-1.4-4.5
		c-0.1-1.8,0-3.9,0.3-6.1c0.3-2.3,0.6-4.7,1.1-7.2c0.5-2.5,0.9-5,1.4-7.6c0.5-2.6,1-5,1.4-7.4c0.4-2.3,0.7-4.5,0.9-6.4
		c0.2-1.9,0.2-3.6,0-4.8c-0.2-0.8-0.4-1.2-0.6-1.2S97.2,7.5,97,7.7c-1,0.6-2.1,1.5-3.2,2.8c-1.1,1.3-2.3,2.8-3.3,4.5
		c-1.1,1.7-2.1,3.5-3.1,5.4c-1,1.9-1.8,3.8-2.4,5.7c-0.7,1.9-1.1,3.6-1.4,5.2c-0.2,1.6-0.2,2.9,0.1,4c0.1,0.4,0.4,0.6,0.7,0.4
		c0.8-0.2,1.4-0.5,1.9-0.8c0.4-0.3,0.7-0.5,0.8-0.6c0.3-0.2,0.6-0.3,0.9-0.2c0.2,0.1,0.5,0.3,0.6,0.5c0.2,0.2,0.2,0.5,0.2,0.8
		c0,0.3-0.1,0.5-0.4,0.7c-0.7,0.5-1.3,1-1.9,1.4c-0.6,0.5-1.3,0.8-2.2,1c-0.9,0.3-1.9,0-2.8-0.8c-0.9-0.8-1.4-2.2-1.5-4.1
		c-0.1-1.8,0.1-3.7,0.7-5.9c0.5-2.2,1.3-4.4,2.2-6.6c0.9-2.2,2-4.4,3.3-6.5c1.3-2.1,2.6-4,3.9-5.7c1.4-1.7,2.7-3,4.1-4
		c1.4-1,2.6-1.5,3.8-1.5C99.5,3.5,100.5,4.2,101.4,5.5z"/>
	<path d="M122.6,25c0.2-0.2,0.4-0.5,0.6-0.7c0.2-0.2,0.4-0.4,0.8-0.5c0.5-0.2,0.9-0.2,1.4,0c0.5,0.2,0.8,0.5,0.9,1
		c0.1,0.3,0.1,0.7,0.1,1c0,0.4-0.1,0.7-0.3,1c-1.1,2.4-2.1,4.9-2.9,7.3c-0.8,2.5-1.4,4.7-1.8,6.6c-0.4,1.9-0.6,3.5-0.6,4.6
		c0,1.1,0.2,1.6,0.6,1.3c0.7-0.5,1.5-1.2,2.3-2.1c0.8-1,1.7-2,2.5-3.1c0.8-1.1,1.6-2.2,2.2-3.3c0.7-1.1,1.2-2,1.6-2.8
		c0.1-0.2,0.2-0.3,0.3-0.5c0.1-0.1,0.2-0.3,0.3-0.5c0.2-0.2,0.4-0.4,0.6-0.4c0.2,0,0.4,0.1,0.6,0.2c0.2,0.2,0.2,0.4,0.2,0.7
		c-0.1,0.8-0.4,1.7-1,2.9c-0.6,1.1-1.2,2.3-2,3.5c-0.7,1.2-1.5,2.3-2.3,3.4s-1.4,1.9-2,2.5c-0.7,0.8-1.4,1.5-2.1,2
		c-0.7,0.5-1.4,0.7-2.3,0.7c-1.6,0-2.6-0.4-3.1-1.3c-0.5-0.9-0.8-2-0.9-3.5c0-3.6,0.5-7.1,1.5-10.6S120.5,27.9,122.6,25z
		 M126.2,15.5c0.2-0.2,0.4-0.4,0.5-0.4s0.3-0.1,0.4-0.4c0.2-0.3,0.5-0.5,0.9-0.5c0.4,0,0.7,0.2,0.9,0.5c0.2,0.3,0.3,0.7,0.4,1.2
		c0,0.5,0,1-0.2,1.6s-0.4,1.1-0.7,1.6c-0.3,0.5-0.7,1-1.1,1.5c-0.5,0.5-0.9,0.7-1.4,0.7c-0.4,0-0.7-0.1-1-0.4
		c-0.3-0.2-0.4-0.6-0.5-1c0-0.4,0.1-1.1,0.4-1.9C125.2,17,125.6,16.2,126.2,15.5z"/>
	<path d="M126.9,44.7c0.1-0.8,0.3-1.9,0.7-3.1c0.4-1.3,0.9-2.6,1.5-4.1c0.6-1.5,1.4-2.9,2.2-4.4c0.8-1.5,1.7-2.8,2.6-4
		c0.9-1.2,1.9-2.2,2.9-2.9c1-0.7,2-1.1,3-1.1c1.4,0,2.5,0.6,3.4,1.8c0.1,0.1,0.1,0.2,0.2,0.2c0,0.1,0.1,0.1,0.2,0.2
		c0.2-0.1,0.5-0.9,1-2.2c0.5-1.4,1.2-3.1,2.1-5.1c0.9-2,2-4.3,3.4-6.8c1.4-2.5,3-5,5-7.5c0.4-0.6,0.9-1.2,1.6-1.8
		c0.6-0.6,1.3-0.9,2.1-0.9c0.6,0,1.1,0.2,1.5,0.6c0.4,0.4,0.6,1,0.5,1.7c0,0.5-0.2,1.1-0.4,1.7c-0.9,2.9-1.9,5.5-3.1,7.7
		c-1.2,2.3-2.3,4.2-3.5,5.9c-1.1,1.7-2.1,3.1-3,4.3s-1.4,2.1-1.6,2.9c-0.6,2-1.2,4.1-1.9,6.5c-0.6,2.4-1.2,4.8-1.7,7.2
		c-0.5,2.4-0.9,4.8-1.3,7.2c-0.3,2.4-0.5,4.5-0.5,6.4c0.1,0.1,0.2,0.1,0.3,0c0.1-0.1,0.1-0.2,0.2-0.2c0.8-0.9,1.7-2,2.7-3.3
		s1.9-2.8,2.8-4.3c0.9-1.5,1.7-3,2.5-4.5c0.8-1.5,1.4-2.7,1.9-3.8c0.7-1.4,1.2-2.5,1.6-3.2c0.4-0.7,0.9-1,1.4-0.8
		c0.5,0.2,0.7,0.7,0.5,1.5c-0.2,1-0.8,2.5-1.7,4.5c-0.9,1.9-1.9,4-3,6.1c-1.1,2.2-2.3,4.2-3.5,6.2c-1.2,2-2.2,3.5-3,4.6
		c-0.7,0.8-1.4,1.4-2,1.8c-0.7,0.4-1.3,0.6-1.8,0.6c-1.2,0-2.2-0.7-3-2c-0.4-0.7-0.7-1.5-0.9-2.4c-0.2-0.9-0.3-1.8-0.3-2.8
		c0-1,0-1.9,0.1-2.9c0.1-0.9,0.2-1.8,0.3-2.6c0.2-1.2,0.3-2.2,0.5-3s0.3-1.5,0.4-2.1c0.1-0.6,0.2-1,0.3-1.3c0.1-0.3,0.1-0.6,0.1-0.7
		c-1.1,1.8-2.2,3.4-3.3,4.9c-0.4,0.6-0.9,1.2-1.3,1.8c-0.5,0.6-0.9,1.2-1.4,1.7s-0.9,0.9-1.3,1.3c-0.4,0.3-0.7,0.6-1,0.7
		c-0.4,0.2-0.8,0.2-1.3,0.2c-1.1,0-2-0.5-2.7-1.5C126.9,48.3,126.7,46.7,126.9,44.7z M131.2,46.8c1.8-2.1,3.3-4.3,4.7-6.5
		c1.4-2.2,2.8-4.6,4.4-7.1c0.4-0.7,0.6-1.4,0.5-2c-0.1-0.7-0.3-1.3-0.6-2c-0.2-0.5-0.5-0.6-0.9-0.2c-0.8,0.7-1.6,1.6-2.4,2.8
		c-0.8,1.2-1.6,2.5-2.3,3.8c-0.7,1.4-1.4,2.8-1.9,4.2c-0.6,1.4-1,2.7-1.4,3.9c-0.1,0.5-0.2,0.9-0.3,1.4
		C131,45.7,131,46.3,131.2,46.8z"/>
	<path d="M167.2,25c0.6,0,1.2,0.2,1.8,0.5c0.6,0.3,1.1,0.8,1.5,1.5c0.2,0,0.3-0.1,0.3-0.2c0-0.1,0.1-0.2,0.2-0.3
		c0.6-0.7,1.2-1.4,1.8-2.1c0.6-0.7,1.2-1.4,1.8-2.1c0.5-0.5,0.9-0.7,1.4-0.7c0.5,0,0.8,0.2,1.1,0.6c0.3,0.4,0.4,0.9,0.3,1.4
		c-0.1,0.4-0.2,0.7-0.3,1.1c-0.1,0.4-0.4,0.9-0.7,1.5c-0.3,0.6-0.7,1.5-1.2,2.6c-0.5,1.1-1.2,2.5-2,4.2c-0.2,0.5-0.6,1.3-1,2.2
		c-0.4,1-0.9,2-1.3,3.1c-0.5,1.1-0.9,2.3-1.3,3.4c-0.4,1.2-0.7,2.2-1,3.2c-0.2,0.9-0.4,1.7-0.3,2.3c0,0.6,0.2,0.9,0.6,0.9
		c0.8,0,1.6-0.3,2.4-0.8c0.8-0.6,1.6-1.3,2.5-2.2c0.8-0.9,1.7-1.8,2.5-2.9c0.8-1,1.5-2,2.2-2.9c0.6-0.9,1.2-1.7,1.7-2.5
		s0.8-1.2,1-1.4c0.2-0.2,0.3-0.2,0.6-0.2c0.2,0,0.4,0.1,0.6,0.3s0.2,0.4,0.2,0.7c0,0.7-0.3,1.5-0.9,2.4c-0.4,0.6-0.8,1.3-1.4,2.2
		c-0.6,0.9-1.2,1.9-1.9,2.9c-0.7,1-1.5,2-2.3,3c-0.8,1-1.7,1.9-2.6,2.7c-0.9,0.8-1.8,1.4-2.7,1.9c-0.9,0.5-1.9,0.7-2.8,0.7
		c-1.3,0-2.2-0.5-2.8-1.4c-0.6-0.9-0.9-2.2-0.9-3.6c0-1.5,0.2-3.1,0.7-5c0.5-1.8,1.2-3.7,2-5.5c-0.2,0.2-0.7,0.7-1.4,1.7
		c-0.7,1-1.5,2-2.5,3.2c-0.9,1.1-1.9,2.2-3,3.1s-2,1.4-3,1.5c-1.5,0-2.5-0.5-3-1.5s-0.6-2.3-0.3-3.9c0.3-1.6,0.9-3.3,1.8-5.1
		c0.9-1.8,2-3.6,3.2-5.1c1.2-1.6,2.6-2.9,4.1-4C164.4,25.5,165.8,25,167.2,25z M157.6,42.7c0.6-0.3,1.4-1,2.4-2s2-2.2,3-3.5
		c1-1.3,2-2.5,2.8-3.7c0.9-1.2,1.5-2,1.9-2.6c0.2-0.3,0.3-0.7,0.3-1.3c0-0.6-0.2-1-0.4-1.2c-0.3-0.2-0.6-0.2-0.9-0.1
		c-0.3,0.1-0.5,0.3-0.8,0.5c-0.2,0.1-0.3,0.2-0.5,0.3c-0.1,0.1-0.3,0.2-0.4,0.3c-1,0.8-2,1.8-2.9,3.2c-0.9,1.3-1.7,2.7-2.4,4
		c-0.7,1.4-1.2,2.6-1.6,3.7C157.7,41.4,157.5,42.2,157.6,42.7z"/>
</g>
</svg>
